<?xml version="1.0" encoding="UTF-8" standalone="no"?>
<svg
   xmlns:dc="http://purl.org/dc/elements/1.1/"
   xmlns:cc="http://creativecommons.org/ns#"
   xmlns:rdf="http://www.w3.org/1999/02/22-rdf-syntax-ns#"
   xmlns:svg="http://www.w3.org/2000/svg"
   xmlns="http://www.w3.org/2000/svg"
   width="508mm"
   height="285.75mm"
   viewBox="0 0 508 285.75"
   version="1.1"
   id="svg8">
  <defs
     id="defs2">
    <rect
       x="82.538055"
       y="-57.696262"
       width="196.87869"
       height="58.684784"
       id="rect1309" />
    <rect
       x="82.538055"
       y="-57.696262"
       width="196.87869"
       height="58.684784"
       id="rect87" />
    <rect
       x="82.538055"
       y="-57.696262"
       width="196.87869"
       height="58.684784"
       id="rect93" />
    <rect
       x="82.538055"
       y="-57.696262"
       width="196.87869"
       height="58.684784"
       id="rect99" />
  </defs>
  <metadata
     id="metadata5">
    <rdf:RDF>
      <cc:Work
         rdf:about="">
        <dc:format>image/svg+xml</dc:format>
        <dc:type
           rdf:resource="http://purl.org/dc/dcmitype/StillImage" />
        <dc:title></dc:title>
      </cc:Work>
    </rdf:RDF>
  </metadata>
  <g
     id="layer1"
     style="display:inline">
    <rect
       style="display:inline;fill:#f2f2f2;fill-opacity:1;stroke:#fffff7;stroke-width:1;stroke-linecap:round;stroke-linejoin:round;stroke-miterlimit:4;stroke-dasharray:2, 4;stroke-dashoffset:0;stroke-opacity:1"
       id="rect1034"
       width="702.80566"
       height="677.12927"
       x="-114.64539"
       y="-117.34812" />
    <rect
       style="fill:#3e325e;fill-opacity:1;stroke-width:0.264583"
       id="rect833"
       width="508"
       height="285.75"
       x="0"
       y="-5.5511151e-17" />
  </g>
  <g
     id="layer3"
     style="display:inline">
    <g
       id="g1147"
       transform="translate(-1.0376068,-0.45586279)">
      <circle
         style="fill:#5c4f82;fill-opacity:0.574297;stroke-width:0.0216477"
         id="circle862"
         cx="157.95627"
         cy="24.321526"
         r="2.4054265" />
      <circle
         style="fill:#5c4f82;fill-opacity:0.574297;stroke-width:0.0179991"
         id="circle864"
         cx="194.43404"
         cy="54.384827"
         r="2" />
      <circle
         style="fill:#5c4f82;fill-opacity:0.574297;stroke-width:0.0134993"
         id="circle866"
         cx="135.13475"
         cy="134.06567"
         r="1.5" />
      <circle
         style="fill:#5c4f82;fill-opacity:0.574297;stroke-width:0.0216477"
         id="circle868"
         cx="145.12733"
         cy="194.30495"
         r="2.4054265" />
      <circle
         style="fill:#5c4f82;fill-opacity:0.574297;stroke-width:0.00899953"
         id="circle870"
         cx="243.14616"
         cy="161.36171"
         r="1" />
      <circle
         style="fill:#5c4f82;fill-opacity:0.574297;stroke-width:0.0216477"
         id="circle872"
         cx="287.84927"
         cy="94.880676"
         r="2.4054265" />
      <circle
         style="fill:#5c4f82;fill-opacity:0.574297;stroke-width:0.0216477"
         id="circle874"
         cx="325.80154"
         cy="41.426781"
         r="2.4054265" />
      <circle
         style="fill:#5c4f82;fill-opacity:0.574297;stroke-width:0.0224988"
         id="circle876"
         cx="391.10989"
         cy="210.97021"
         r="2.5" />
      <circle
         style="fill:#5c4f82;fill-opacity:0.574297;stroke-width:0.0179991"
         id="circle878"
         cx="338.22507"
         cy="171.9834"
         r="2" />
      <circle
         style="fill:#5c4f82;fill-opacity:0.574297;stroke-width:0.0134993"
         id="circle880"
         cx="408.81876"
         cy="86.491707"
         r="1.5" />
      <circle
         style="fill:#5c4f82;fill-opacity:0.574297;stroke-width:0.0216477"
         id="circle882"
         cx="454.09091"
         cy="28.597824"
         r="2.4054265" />
      <circle
         style="fill:#5c4f82;fill-opacity:0.574297;stroke-width:0.0134993"
         id="circle884"
         cx="480.98151"
         cy="257.00964"
         r="1.5" />
      <circle
         style="fill:#5c4f82;fill-opacity:0.574297;stroke-width:0.0216477"
         id="circle886"
         cx="472.79974"
         cy="263.26047"
         r="2.4054265" />
      <circle
         style="fill:#5c4f82;fill-opacity:0.574297;stroke-width:0.0224988"
         id="circle978"
         cx="261.21689"
         cy="252.66428"
         r="2.5" />
      <circle
         style="fill:#5c4f82;fill-opacity:0.574297;stroke-width:0.0179991"
         id="circle980"
         cx="57.59206"
         cy="72.024612"
         r="2" />
      <circle
         style="fill:#5c4f82;fill-opacity:0.574297;stroke-width:0.0134993"
         id="circle982"
         cx="45.332199"
         cy="182.70874"
         r="1.5" />
      <circle
         style="fill:#5c4f82;fill-opacity:0.574297;stroke-width:0.0134993"
         id="circle984"
         cx="87.560745"
         cy="255.94057"
         r="1.5" />
      <circle
         style="fill:#5c4f82;fill-opacity:0.574297;stroke-width:0.0216477"
         id="circle986"
         cx="95.949722"
         cy="240.27528"
         r="2.4054265" />
      <circle
         style="fill:#5c4f82;fill-opacity:0.574297;stroke-width:0.0134993"
         id="circle988"
         cx="458.53088"
         cy="161.86171"
         r="1.5" />
    </g>
  </g>
  <g
     id="layer2"
     style="display:inline">
    <g
       id="g1126"
       transform="translate(-1.0376068,-0.45586279)">
      <circle
         style="display:inline;fill:#ffd594;fill-opacity:0.124498;stroke-width:0.0539971"
         id="circle905"
         cx="85.724426"
         cy="58.997486"
         r="6" />
      <circle
         style="display:inline;fill:#ffd594;fill-opacity:1;stroke-width:0.0179991"
         id="path836"
         cx="85.724426"
         cy="58.997486"
         r="2" />
      <circle
         style="display:inline;fill:#86e3e9;fill-opacity:1;stroke-width:0.0179991"
         id="circle838"
         cx="121.20219"
         cy="88.060783"
         r="2" />
      <circle
         style="display:inline;fill:#86e3e9;fill-opacity:1;stroke-width:0.0134993"
         id="circle840"
         cx="82.029114"
         cy="182.00394"
         r="1.5" />
      <circle
         style="display:inline;fill:#86e3e9;fill-opacity:1;stroke-width:0.0216477"
         id="circle842"
         cx="71.895485"
         cy="227.98091"
         r="2.4054265" />
      <circle
         style="display:inline;fill:#86e3e9;fill-opacity:1;stroke-width:0.00899953"
         id="circle844"
         cx="169.91432"
         cy="195.03767"
         r="1" />
      <circle
         style="display:inline;fill:#86e3e9;fill-opacity:1;stroke-width:0.0216477"
         id="circle848"
         cx="252.56969"
         cy="75.102737"
         r="2.4054265" />
      <circle
         style="display:inline;fill:#ff6c88;fill-opacity:1;stroke-width:0.017999"
         id="circle850"
         cx="317.37802"
         cy="244.14618"
         r="2" />
      <circle
         style="display:inline;fill:#ffd594;fill-opacity:1;stroke-width:0.0134993"
         id="circle854"
         cx="355.66827"
         cy="107.42509"
         r="1.5" />
      <circle
         style="display:inline;fill:#ff6c88;fill-opacity:1;stroke-width:0.0216477"
         id="circle856"
         cx="374.9614"
         cy="49.81356"
         r="2.4054265" />
      <circle
         style="display:inline;fill:#ffd594;fill-opacity:1;stroke-width:0.0134993"
         id="circle858"
         cx="454.25455"
         cy="190.72681"
         r="1.5" />
      <g
         id="g988"
         transform="translate(-63.995386,16.010633)">
        <circle
           style="display:inline;fill:#ff6c88;fill-opacity:0.184739;stroke-width:0.0449977"
           id="circle903"
           cx="370.69656"
           cy="116.58424"
           r="5" />
        <circle
           style="display:inline;fill:#ff6c88;fill-opacity:1;stroke-width:0.0216477"
           id="circle846"
           cx="370.69656"
           cy="116.58424"
           r="2.4054265" />
      </g>
      <g
         id="g1025"
         transform="translate(-188.88318,23.520021)">
        <circle
           style="display:inline;fill:#86e3e9;fill-opacity:1;stroke-width:0.0179991"
           id="circle860"
           cx="472.92889"
           cy="177.19516"
           r="2" />
        <circle
           style="display:inline;fill:#86e3e9;fill-opacity:0.321285;stroke-width:0.0449976"
           id="circle990"
           cx="472.92889"
           cy="177.19516"
           r="5" />
      </g>
      <g
         id="g1043"
         transform="matrix(1.0999958,0,0,1.0999958,-15.663545,-22.863804)">
        <circle
           style="display:inline;fill:#d4bbe9;fill-opacity:0.321285;stroke-width:0.0359981"
           id="circle1038"
           cx="161.64211"
           cy="233.69342"
           r="4" />
        <path
           id="path1019"
           style="fill:#ff6c88;fill-opacity:1;stroke:none;stroke-width:0.434664;stroke-opacity:1"
           d="m 165.99943,234.14319 c -3.05784,0.39229 -3.51073,0.1939 -3.83178,3.89776 -0.082,0.90204 -0.99573,0.97728 -1.02445,-0.0529 -0.33395,-3.703 -0.49037,-3.50522 -3.97821,-3.8921 -0.71757,-0.0478 -0.69346,-0.82882 0.0529,-0.82332 3.36558,-0.69058 3.56611,-0.42584 3.95244,-4.11901 0.0391,-0.64941 0.74303,-0.71042 0.86355,0.0328 0.52595,3.62665 0.90582,3.47534 4.01845,4.0329 0.80394,0.10379 0.78571,0.90724 -0.0529,0.92388 z" />
      </g>
      <g
         id="g1048">
        <circle
           style="display:inline;fill:#d7e3dd;fill-opacity:0.321285;stroke-width:0.0359981"
           id="circle1036"
           cx="190.69955"
           cy="104.33973"
           r="4" />
        <path
           id="path1030"
           style="fill:#ffd594;fill-opacity:1;stroke:none;stroke-width:0.434664;stroke-opacity:1"
           d="m 195.05688,104.7895 c -3.05784,0.39229 -3.51073,0.1939 -3.83178,3.89776 -0.082,0.90204 -0.99573,0.97728 -1.02445,-0.0529 -0.33395,-3.703 -0.49037,-3.50522 -3.97821,-3.8921 -0.71757,-0.0478 -0.69346,-0.82882 0.0529,-0.82332 3.36558,-0.69058 3.56611,-0.42584 3.95244,-4.11901 0.0391,-0.64941 0.74303,-0.71042 0.86355,0.0328 0.52595,3.62665 0.90582,3.47534 4.01845,4.0329 0.80394,0.10379 0.78571,0.90724 -0.0529,0.92388 z" />
      </g>
      <g
         id="g1053"
         transform="matrix(1.1999954,0,0,1.1999954,-35.742578,-83.120537)">
        <circle
           style="display:inline;fill:#86e3e9;fill-opacity:0.321285;stroke-width:0.0359981"
           id="circle1034"
           cx="399.16846"
           cy="129.60959"
           r="4" />
        <path
           id="path1032"
           style="fill:#86e3e9;fill-opacity:1;stroke:none;stroke-width:0.434664;stroke-opacity:1"
           d="m 403.52578,130.05936 c -3.05784,0.39229 -3.51073,0.1939 -3.83178,3.89776 -0.082,0.90204 -0.99573,0.97728 -1.02445,-0.0529 -0.33395,-3.703 -0.49037,-3.50522 -3.97821,-3.8921 -0.71757,-0.0478 -0.69346,-0.82882 0.0529,-0.82332 3.36558,-0.69058 3.56611,-0.42584 3.95244,-4.11901 0.0391,-0.64941 0.74303,-0.71042 0.86355,0.0328 0.52595,3.62665 0.90582,3.47534 4.01845,4.0329 0.80394,0.10379 0.78571,0.90724 -0.0529,0.92388 z" />
      </g>
    </g>
  </g>
  <g
     id="layer7"
     style="display:inline">
    <circle
       style="display:inline;fill:none;fill-opacity:0.522088;stroke:#fffff7;stroke-width:1;stroke-linecap:round;stroke-linejoin:round;stroke-miterlimit:4;stroke-dasharray:2, 4;stroke-dashoffset:0;stroke-opacity:1"
       id="path1029"
       cx="434.8869"
       cy="370.96555"
       r="252.19005" />
  </g>
  <g
     id="layer6"
     style="display:none">
    <path
       style="fill:#767cbf;fill-opacity:0.718876;stroke:none;stroke-width:0.264583px;stroke-linecap:butt;stroke-linejoin:miter;stroke-opacity:1"
       d="m 315.87638,265.64166 c 4.59433,0 11.4852,-3.89562 9.62776,-13.06204 -2.84184,-7.98669 -4.07008,-15.2407 -4.30394,-25.76428 -0.97262,-43.7673 35.48916,-79.26727 79.26727,-79.26727 43.7781,0 79.26726,35.48917 79.26726,79.26727 0,10.94452 -2.33457,19.0961 -3.9902,24.88084 -2.58975,7.46119 2.43738,13.98231 9.30574,14.00981 l 23.98734,-0.0643 -10e-6,20.56418 H 1.0376068 V 272.52085 H 181.90103 c 27.19236,-1.14755 54.16701,-5.73162 81.35937,-6.87917 l 13.25664,10e-6 z"
       id="path976" />
    <path
       style="fill:#86e3e9;fill-opacity:1;stroke:none;stroke-width:0.264583px;stroke-linecap:butt;stroke-linejoin:miter;stroke-opacity:1"
       d="m 1.038,286.20587 205.82733,-2e-5 155.47657,-11.49535 h 146.69571 v 28.48456 H 1.038 Z"
       id="path1037" />
    <rect
       style="fill:#b3f3ed;fill-opacity:1;stroke:none;stroke-width:1.03099;stroke-linecap:round;stroke-linejoin:round;stroke-miterlimit:4;stroke-dasharray:2.06199, 4.12398;stroke-dashoffset:0;stroke-opacity:1"
       id="rect1039"
       width="508"
       height="166.86975"
       x="1.038"
       y="303.19507" />
  </g>
  <g
     id="layer4"
     style="display:inline">
    <g
       id="g1021"
       transform="matrix(0.93120055,0,0,0.90531931,26.67331,19.08119)">
      <g
         id="g1125"
         transform="matrix(1.1323895,0,0,1.1323895,37.888915,-285.27388)">
        <path
           id="path1107"
           style="fill:#ffa19e;fill-opacity:1;stroke-width:0.264583"
           d="m 385.93721,452.22006 a 65.748306,65.748306 0 0 1 -65.74831,65.74831 65.748306,65.748306 0 0 1 -65.7483,-65.74831 65.748306,65.748306 0 0 1 65.7483,-65.7483 65.748306,65.748306 0 0 1 65.74831,65.7483 z" />
        <path
           id="rect1055"
           style="fill:#ffd594;fill-opacity:1;stroke:none;stroke-width:0.999999;stroke-opacity:1"
           d="m 967.95508,1653.6191 a 248.49753,248.49753 0 0 0 -5.38281,34.3457 H 1457.752 a 248.49753,248.49753 0 0 0 -5.3829,-34.3457 z"
           transform="scale(0.26458333)" />
        <path
           id="rect1061"
           style="fill:#ffd594;fill-opacity:1;stroke:none;stroke-width:0.31369;stroke-opacity:1"
           d="m 961.70117,1705.0449 a 248.49753,248.49753 0 0 0 -0.0352,4.1328 248.49753,248.49753 0 0 0 0.0898,6.6407 h 135.14063 c 2.9843,0 5.3867,-2.4024 5.3867,-5.3868 0,-2.9843 -2.4024,-5.3867 -5.3867,-5.3867 z"
           transform="scale(0.26458333)" />
        <rect
           style="fill:#ffd594;fill-opacity:1;stroke:none;stroke-width:0.0336264;stroke-opacity:1"
           id="rect1063"
           width="8.2022133"
           height="2.8505569"
           x="296.29462"
           y="451.12637"
           ry="1.4252784" />
        <path
           id="rect1065"
           style="fill:#ffd594;fill-opacity:1;stroke:none;stroke-width:0.446033;stroke-opacity:1"
           d="m 1352.8867,1836.1797 c -6.0336,0 -10.8906,4.857 -10.8906,10.8906 0,6.0337 4.857,10.8906 10.8906,10.8906 h 56.3086 a 248.49753,248.49753 0 0 0 14.5586,-21.7812 z"
           transform="scale(0.26458333)" />
        <circle
           style="fill:#ffd594;fill-opacity:1;stroke:none;stroke-width:0.264583;stroke-opacity:1"
           id="path1067"
           cx="347.58398"
           cy="413.33231"
           r="6.8153729" />
      </g>
      <path
         style="fill:#e14168;fill-opacity:0.325301;stroke:none;stroke-width:0.276471;stroke-opacity:1"
         d="m 346.02096,186.06215 c -3.2524,0.23735 -14.12398,20.49748 -14.25554,40.753 0,15.37626 5.05235,29.5721 13.58609,41.01984 -2.38826,0.12075 -4.66998,0.20216 -6.85127,0.26216 1.42408,2.07131 2.45124,3.52829 3.85632,5.25959 2.16095,-0.13875 4.52348,-0.31929 7.06898,-0.55886 12.57444,13.94903 30.78336,22.71956 51.04218,22.71956 25.82111,0.59314 50.75327,-17.85187 36.31793,-16.94851 -17.3184,0 -33.48936,-4.90251 -47.21045,-13.38831 8.17504,-2.22222 17.38785,-5.0592 27.84279,-8.71331 19.73564,-6.35813 44.77959,-19.28629 57.47332,-27.55605 0.10441,-2.78766 -0.0542,-5.95007 -0.2136,-8.11467 -8.49224,6.51558 -32.13589,22.95814 -61.1804,32.40718 -10.6819,3.8505 -20.1921,6.68498 -28.73929,8.78646 -22.91305,-16.29071 -37.86049,-43.05437 -37.86046,-73.30941 0.14556,-1.8548 -0.20157,-2.66793 -0.8766,-2.61867 z"
         id="path1131" />
      <path
         id="path1258"
         style="fill:#ffffff;fill-opacity:1;stroke:none;stroke-width:0.292116;stroke-opacity:1"
         d="m 326.53653,217.98922 c -21.23285,14.05364 -34.70232,28.25512 -29.92683,40.67805 9.0131,17.18958 62.21352,14.5794 118.82657,-5.83 56.61301,-20.40936 95.20062,-50.88936 86.18799,-68.07907 -5.00076,-9.53758 -24.38018,-13.02074 -48.60156,-10.66228 2.28486,2.32812 4.31796,4.55595 5.91762,6.65246 6.42452,-0.0832 22.93713,1.55183 27.27089,9.81751 7.8123,14.90043 -25.63633,41.32115 -74.7097,59.01238 -49.07372,17.69134 -95.18901,19.9537 -103.00115,5.05308 -5.37591,-11.72257 13.10792,-25.89727 17.52379,-29.39939 0.0776,-2.74006 0.24212,-4.7572 0.51238,-7.24274 z" />
    </g>
    <g
       id="g976"
       transform="translate(-0.52916664,-1.7197916)">
      <circle
         style="display:inline;fill:#56e5ac;fill-opacity:1;stroke-width:0.0674966"
         id="circle852"
         cx="460.37518"
         cy="121.02974"
         r="7.5" />
      <path
         style="fill:#3db191;fill-opacity:1;stroke:none;stroke-width:0.0251985;stroke-opacity:1"
         d="m 455.45929,117.36832 c -0.30065,0.0212 -1.30558,1.84206 -1.31774,3.66238 0,1.38183 0.46703,2.65756 1.25585,3.68636 0.087,0.11445 0.26974,0.32677 0.3766,0.446 1.16233,1.25357 2.84551,2.04175 4.71817,2.04175 2.38682,0.0533 4.69147,-1.60431 3.35711,-1.52311 -1.60085,0 -3.09564,-0.44059 -4.36397,-1.2032 -0.16678,-0.097 -0.2214,-0.13357 -0.44529,-0.28669 -2.11802,-1.46403 -3.49971,-3.8692 -3.49971,-6.58815 0.0135,-0.16669 -0.0185,-0.23977 -0.0809,-0.23534 z"
         id="path952" />
    </g>
  </g>
  <g
     id="layer5"
     style="display:inline">
    <path
       style="fill:#ff6c88;fill-opacity:0.522088;stroke:none;stroke-width:0.158016px;stroke-linecap:butt;stroke-linejoin:miter;stroke-opacity:1"
       d="m 80.655245,129.87702 c -3.24244,-5.5749 -11.3923,-8.65015 -17.76557,-7.663 -8.10132,1.2548 -17.50379,7.9887 -18.5776,16.11599 -0.93382,7.06781 5.35573,15.04881 11.96154,17.73009 6.94129,2.81744 16.96163,0.94572 21.99811,-4.59985 4.86629,-5.35817 6.02257,-15.32639 2.38352,-21.58323 z"
       id="path1027" />
    <g
       id="g980"
       transform="translate(4.2628927,4.4208005)">
      <text
         xml:space="preserve"
         id="text1307"
         style="font-style:normal;font-weight:normal;font-size:10.5833px;line-height:1.25;font-family:sans-serif;white-space:pre;shape-inside:url(#rect1309);fill:#ffffff;fill-opacity:1;stroke:none;"
         transform="translate(-23.8125,178.85833)"><tspan
           x="82.537109"
           y="-35.004623"><tspan
             style="font-style:normal;font-variant:normal;font-weight:normal;font-stretch:normal;font-size:22.5778px;font-family:'Yusei Magic';-inkscape-font-specification:'Yusei Magic, Normal';font-variant-ligatures:normal;font-variant-caps:normal;font-variant-numeric:normal;font-variant-east-asian:normal;fill:#ffffff">SPACE PLACE</tspan></tspan></text>
      <text
         xml:space="preserve"
         id="text85"
         style="font-style:normal;font-weight:normal;font-size:7.05556px;line-height:1.25;font-family:sans-serif;white-space:pre;shape-inside:url(#rect87);fill:#ffffff;fill-opacity:1;stroke:none;"
         transform="translate(-23.283333,206.9042)"><tspan
           x="82.537109"
           y="-50.604475"><tspan
             style="font-style:normal;font-variant:normal;font-weight:normal;font-stretch:normal;font-size:7.05556px;font-family:'Yusei Magic';-inkscape-font-specification:'Yusei Magic, Normal';font-variant-ligatures:normal;font-variant-caps:normal;font-variant-numeric:normal;font-variant-east-asian:normal;fill:#ffffff">Buy stuff for your place, from space!</tspan></tspan></text>
    </g>
    <g
       id="g972"
       transform="translate(-5.8001068,-0.45586279)">
      <g
         id="g110"
         transform="matrix(0.99045989,0,0,0.99045989,1.6595261,0.17374324)">
        <g
           id="g103">
          <text
             xml:space="preserve"
             id="text91"
             style="font-style:normal;font-weight:normal;font-size:7.76111px;line-height:1.25;font-family:sans-serif;white-space:pre;shape-inside:url(#rect93);fill:#ffffff;fill-opacity:1;stroke:none;"
             transform="translate(-23.8125,74.08333)"><tspan
               x="82.537109"
               y="-49.895397"><tspan
                 style="font-style:normal;font-variant:normal;font-weight:normal;font-stretch:normal;font-size:7.76111px;font-family:'Yusei Magic';-inkscape-font-specification:'Yusei Magic, Normal';font-variant-ligatures:normal;font-variant-caps:normal;font-variant-numeric:normal;font-variant-east-asian:normal;fill:#ffffff">SPACE PLACE</tspan></tspan></text>
        </g>
        <text
           xml:space="preserve"
           id="text97"
           style="font-style:normal;font-weight:normal;font-size:7.76111px;line-height:1.25;font-family:sans-serif;white-space:pre;shape-inside:url(#rect99);fill:#ffffff;fill-opacity:1;stroke:none;"
           transform="translate(314.85417,74.08333)"><tspan
             x="82.537109"
             y="-49.895397"><tspan
               style="font-style:normal;font-variant:normal;font-weight:normal;font-stretch:normal;font-size:7.76111px;font-family:'Yusei Magic';-inkscape-font-specification:'Yusei Magic, Normal';font-variant-ligatures:normal;font-variant-caps:normal;font-variant-numeric:normal;font-variant-east-asian:normal;fill:#ffffff">SHOP  USER  CART</tspan></tspan></text>
      </g>
      <rect
         style="opacity:1;mix-blend-mode:normal;fill:#ffffff;fill-opacity:1;stroke:none;stroke-width:0.060402;stroke-linecap:round;stroke-linejoin:round;stroke-miterlimit:4;stroke-dasharray:none;stroke-opacity:1"
         id="rect953"
         width="399.92505"
         height="0.60000002"
         x="60"
         y="28.479971"
         ry="0.30000001" />
    </g>
  </g>
</svg>
