<?xml version="1.0" encoding="UTF-8" standalone="no"?>
<svg
   xmlns:dc="http://purl.org/dc/elements/1.1/"
   xmlns:cc="http://creativecommons.org/ns#"
   xmlns:rdf="http://www.w3.org/1999/02/22-rdf-syntax-ns#"
   xmlns:svg="http://www.w3.org/2000/svg"
   xmlns="http://www.w3.org/2000/svg"
   xmlns:sodipodi="http://sodipodi.sourceforge.net/DTD/sodipodi-0.dtd"
   xmlns:inkscape="http://www.inkscape.org/namespaces/inkscape"
   width="508mm"
   height="285.75mm"
   viewBox="0 0 508 285.75"
   version="1.1"
   id="svg8"
   sodipodi:docname="Stars.svg"
   inkscape:version="1.0.1 (3bc2e813f5, 2020-09-07)">
  <sodipodi:namedview
     pagecolor="#ffffff"
     bordercolor="#666666"
     borderopacity="1"
     objecttolerance="10"
     gridtolerance="10"
     guidetolerance="10"
     inkscape:pageopacity="0"
     inkscape:pageshadow="2"
     inkscape:window-width="1878"
     inkscape:window-height="1005"
     id="namedview108"
     showgrid="false"
     inkscape:zoom="0.28854167"
     inkscape:cx="781.77554"
     inkscape:cy="520.43159"
     inkscape:window-x="859"
     inkscape:window-y="196"
     inkscape:window-maximized="0"
     inkscape:current-layer="svg8" />
  <defs
     id="defs2">
    <rect
       x="82.538055"
       y="-57.696262"
       width="196.87869"
       height="58.684784"
       id="rect1309" />
    <rect
       x="82.538055"
       y="-57.696262"
       width="196.87869"
       height="58.684784"
       id="rect87" />
    <rect
       x="82.538055"
       y="-57.696262"
       width="196.87869"
       height="58.684784"
       id="rect93" />
    <rect
       x="82.538055"
       y="-57.696262"
       width="196.87869"
       height="58.684784"
       id="rect99" />
  </defs>
  <metadata
     id="metadata5">
    <rdf:RDF>
      <cc:Work
         rdf:about="">
        <dc:format>image/svg+xml</dc:format>
        <dc:type
           rdf:resource="http://purl.org/dc/dcmitype/StillImage" />
        <dc:title />
      </cc:Work>
    </rdf:RDF>
  </metadata>
  <g
     id="layer2"
     style="display:inline">
    <g
       id="g1126"
       transform="translate(-1.0376068,-0.45586279)">
      <circle
         style="display:inline;fill:#ffd594;fill-opacity:0.124498;stroke-width:0.0539971"
         id="circle905"
         cx="85.724426"
         cy="58.997486"
         r="6" />
      <circle
         style="display:inline;fill:#ffd594;fill-opacity:1;stroke-width:0.0179991"
         id="path836"
         cx="85.724426"
         cy="58.997486"
         r="2" />
      <circle
         style="display:inline;fill:#86e3e9;fill-opacity:1;stroke-width:0.0179991"
         id="circle838"
         cx="121.20219"
         cy="88.060783"
         r="2" />
      <circle
         style="display:inline;fill:#86e3e9;fill-opacity:1;stroke-width:0.0134993"
         id="circle840"
         cx="82.029114"
         cy="182.00394"
         r="1.5" />
      <circle
         style="display:inline;fill:#86e3e9;fill-opacity:1;stroke-width:0.0216477"
         id="circle842"
         cx="71.895485"
         cy="227.98091"
         r="2.4054265" />
      <circle
         style="display:inline;fill:#86e3e9;fill-opacity:1;stroke-width:0.00899953"
         id="circle844"
         cx="169.91432"
         cy="195.03767"
         r="1" />
      <circle
         style="display:inline;fill:#86e3e9;fill-opacity:1;stroke-width:0.0216477"
         id="circle848"
         cx="252.56969"
         cy="75.102737"
         r="2.4054265" />
      <circle
         style="display:inline;fill:#ff6c88;fill-opacity:1;stroke-width:0.017999"
         id="circle850"
         cx="317.37802"
         cy="244.14618"
         r="2" />
      <circle
         style="display:inline;fill:#ffd594;fill-opacity:1;stroke-width:0.0134993"
         id="circle854"
         cx="355.66827"
         cy="107.42509"
         r="1.5" />
      <circle
         style="display:inline;fill:#ff6c88;fill-opacity:1;stroke-width:0.0216477"
         id="circle856"
         cx="374.9614"
         cy="49.81356"
         r="2.4054265" />
      <circle
         style="display:inline;fill:#ffd594;fill-opacity:1;stroke-width:0.0134993"
         id="circle858"
         cx="454.25455"
         cy="190.72681"
         r="1.5" />
      <g
         id="g988"
         transform="translate(-63.995386,16.010633)">
        <circle
           style="display:inline;fill:#ff6c88;fill-opacity:0.184739;stroke-width:0.0449977"
           id="circle903"
           cx="370.69656"
           cy="116.58424"
           r="5" />
        <circle
           style="display:inline;fill:#ff6c88;fill-opacity:1;stroke-width:0.0216477"
           id="circle846"
           cx="370.69656"
           cy="116.58424"
           r="2.4054265" />
      </g>
      <g
         id="g1025"
         transform="translate(-188.88318,23.520021)">
        <circle
           style="display:inline;fill:#86e3e9;fill-opacity:1;stroke-width:0.0179991"
           id="circle860"
           cx="472.92889"
           cy="177.19516"
           r="2" />
        <circle
           style="display:inline;fill:#86e3e9;fill-opacity:0.321285;stroke-width:0.0449976"
           id="circle990"
           cx="472.92889"
           cy="177.19516"
           r="5" />
      </g>
      <g
         id="g1043"
         transform="matrix(1.0999958,0,0,1.0999958,-15.663545,-22.863804)">
        <circle
           style="display:inline;fill:#d4bbe9;fill-opacity:0.321285;stroke-width:0.0359981"
           id="circle1038"
           cx="161.64211"
           cy="233.69342"
           r="4" />
        <path
           id="path1019"
           style="fill:#ff6c88;fill-opacity:1;stroke:none;stroke-width:0.434664;stroke-opacity:1"
           d="m 165.99943,234.14319 c -3.05784,0.39229 -3.51073,0.1939 -3.83178,3.89776 -0.082,0.90204 -0.99573,0.97728 -1.02445,-0.0529 -0.33395,-3.703 -0.49037,-3.50522 -3.97821,-3.8921 -0.71757,-0.0478 -0.69346,-0.82882 0.0529,-0.82332 3.36558,-0.69058 3.56611,-0.42584 3.95244,-4.11901 0.0391,-0.64941 0.74303,-0.71042 0.86355,0.0328 0.52595,3.62665 0.90582,3.47534 4.01845,4.0329 0.80394,0.10379 0.78571,0.90724 -0.0529,0.92388 z" />
      </g>
      <g
         id="g1048">
        <circle
           style="display:inline;fill:#d7e3dd;fill-opacity:0.321285;stroke-width:0.0359981"
           id="circle1036"
           cx="190.69955"
           cy="104.33973"
           r="4" />
        <path
           id="path1030"
           style="fill:#ffd594;fill-opacity:1;stroke:none;stroke-width:0.434664;stroke-opacity:1"
           d="m 195.05688,104.7895 c -3.05784,0.39229 -3.51073,0.1939 -3.83178,3.89776 -0.082,0.90204 -0.99573,0.97728 -1.02445,-0.0529 -0.33395,-3.703 -0.49037,-3.50522 -3.97821,-3.8921 -0.71757,-0.0478 -0.69346,-0.82882 0.0529,-0.82332 3.36558,-0.69058 3.56611,-0.42584 3.95244,-4.11901 0.0391,-0.64941 0.74303,-0.71042 0.86355,0.0328 0.52595,3.62665 0.90582,3.47534 4.01845,4.0329 0.80394,0.10379 0.78571,0.90724 -0.0529,0.92388 z" />
      </g>
      <g
         id="g1053"
         transform="matrix(1.1999954,0,0,1.1999954,-35.742578,-83.120537)">
        <circle
           style="display:inline;fill:#86e3e9;fill-opacity:0.321285;stroke-width:0.0359981"
           id="circle1034"
           cx="399.16846"
           cy="129.60959"
           r="4" />
        <path
           id="path1032"
           style="fill:#86e3e9;fill-opacity:1;stroke:none;stroke-width:0.434664;stroke-opacity:1"
           d="m 403.52578,130.05936 c -3.05784,0.39229 -3.51073,0.1939 -3.83178,3.89776 -0.082,0.90204 -0.99573,0.97728 -1.02445,-0.0529 -0.33395,-3.703 -0.49037,-3.50522 -3.97821,-3.8921 -0.71757,-0.0478 -0.69346,-0.82882 0.0529,-0.82332 3.36558,-0.69058 3.56611,-0.42584 3.95244,-4.11901 0.0391,-0.64941 0.74303,-0.71042 0.86355,0.0328 0.52595,3.62665 0.90582,3.47534 4.01845,4.0329 0.80394,0.10379 0.78571,0.90724 -0.0529,0.92388 z" />
      </g>
    </g>
  </g>
  <g
     id="layer6"
     style="display:none">
    <path
       style="fill:#767cbf;fill-opacity:0.718876;stroke:none;stroke-width:0.264583px;stroke-linecap:butt;stroke-linejoin:miter;stroke-opacity:1"
       d="m 315.87638,265.64166 c 4.59433,0 11.4852,-3.89562 9.62776,-13.06204 -2.84184,-7.98669 -4.07008,-15.2407 -4.30394,-25.76428 -0.97262,-43.7673 35.48916,-79.26727 79.26727,-79.26727 43.7781,0 79.26726,35.48917 79.26726,79.26727 0,10.94452 -2.33457,19.0961 -3.9902,24.88084 -2.58975,7.46119 2.43738,13.98231 9.30574,14.00981 l 23.98734,-0.0643 -10e-6,20.56418 H 1.0376068 V 272.52085 H 181.90103 c 27.19236,-1.14755 54.16701,-5.73162 81.35937,-6.87917 l 13.25664,10e-6 z"
       id="path976" />
    <path
       style="fill:#86e3e9;fill-opacity:1;stroke:none;stroke-width:0.264583px;stroke-linecap:butt;stroke-linejoin:miter;stroke-opacity:1"
       d="m 1.038,286.20587 205.82733,-2e-5 155.47657,-11.49535 h 146.69571 v 28.48456 H 1.038 Z"
       id="path1037" />
    <rect
       style="fill:#b3f3ed;fill-opacity:1;stroke:none;stroke-width:1.03099;stroke-linecap:round;stroke-linejoin:round;stroke-miterlimit:4;stroke-dasharray:2.06199, 4.12398;stroke-dashoffset:0;stroke-opacity:1"
       id="rect1039"
       width="508"
       height="166.86975"
       x="1.038"
       y="303.19507" />
  </g>
</svg>
